<svg xmlns="http://www.w3.org/2000/svg" xmlns:xlink="http://www.w3.org/1999/xlink" width="500" zoomAndPan="magnify" viewBox="0 0 375 374.999991" height="500" preserveAspectRatio="xMidYMid meet" version="1.0"><defs><g/><clipPath id="25ca27da91"><path d="M 99.164062 46.679688 L 159.148438 46.679688 L 159.148438 266.558594 L 99.164062 266.558594 Z M 99.164062 46.679688 " clip-rule="nonzero"/></clipPath><clipPath id="84f5184216"><path d="M 132.886719 233.679688 L 192.871094 233.679688 L 192.871094 272.558594 L 132.886719 272.558594 Z M 132.886719 233.679688 " clip-rule="nonzero"/></clipPath><clipPath id="366055c7b0"><path d="M 93 44 L 188 44 L 188 270 L 93 270 Z M 93 44 " clip-rule="nonzero"/></clipPath><clipPath id="71c0969623"><path d="M 84.21875 49.3125 L 183.707031 42.085938 L 199.898438 265 L 100.410156 272.226562 Z M 84.21875 49.3125 " clip-rule="nonzero"/></clipPath><clipPath id="7b2f7455f8"><path d="M 84.21875 49.3125 L 183.707031 42.085938 L 199.898438 265 L 100.410156 272.226562 Z M 84.21875 49.3125 " clip-rule="nonzero"/></clipPath></defs><rect x="-37.5" width="450" fill="#ffffff" y="-37.499999" height="449.999989" fill-opacity="1"/><rect x="-37.5" width="450" fill="#023e49" y="-37.499999" height="449.999989" fill-opacity="1"/><g fill="#c57f23" fill-opacity="1"><g transform="translate(96.661691, 263.2351)"><g><path d="M 156.796875 0 C 152.128906 0 147.515625 -2.375 142.953125 -7.125 C 138.390625 -11.875 134.289062 -17.789062 130.65625 -24.875 C 127.019531 -31.957031 122.78125 -39.644531 117.9375 -47.9375 C 113.09375 -56.226562 108.25 -64.003906 103.40625 -71.265625 C 98.5625 -78.535156 92.410156 -84.6875 84.953125 -89.71875 C 77.503906 -94.75 69.585938 -97.445312 61.203125 -97.8125 L 61.203125 -63.15625 C 61.203125 -43.039062 61.804688 -29.394531 63.015625 -22.21875 C 64.234375 -15.039062 65.957031 -10.519531 68.1875 -8.65625 C 72.664062 -5.125 79.5625 -3.359375 88.875 -3.359375 L 89.4375 0 L 14.53125 0 L 15.09375 -3.359375 C 24.21875 -3.359375 30.925781 -5.035156 35.21875 -8.390625 C 38.757812 -11.179688 40.804688 -20.3125 41.359375 -35.78125 C 41.734375 -41.925781 41.921875 -51.050781 41.921875 -63.15625 L 41.921875 -133.875 C 41.921875 -154.550781 41.359375 -168.242188 40.234375 -174.953125 C 39.117188 -181.660156 37.445312 -185.851562 35.21875 -187.53125 C 30.925781 -190.695312 24.21875 -192.28125 15.09375 -192.28125 L 14.53125 -195.640625 L 79.375 -195.640625 C 126.320312 -195.640625 149.796875 -179.800781 149.796875 -148.125 C 149.796875 -134.519531 145 -123.109375 135.40625 -113.890625 C 125.8125 -104.671875 114.210938 -99.3125 100.609375 -97.8125 C 114.210938 -89.800781 126.789062 -75.082031 138.34375 -53.65625 C 142.8125 -45.269531 147.5625 -37.257812 152.59375 -29.625 C 163.59375 -12.113281 177.753906 -3.359375 195.078125 -3.359375 L 195.640625 0 Z M 61.203125 -189.203125 L 61.203125 -103.40625 L 78.8125 -103.40625 C 92.976562 -103.40625 104.71875 -107.035156 114.03125 -114.296875 C 123.34375 -121.566406 128 -132.378906 128 -146.734375 C 128 -175.046875 111.789062 -189.203125 79.375 -189.203125 Z M 61.203125 -189.203125 "/></g></g></g><g clip-path="url(#25ca27da91)"><path fill="#023e49" d="M 99.164062 46.679688 L 159.148438 46.679688 L 159.148438 266.464844 L 99.164062 266.464844 Z M 99.164062 46.679688 " fill-opacity="1" fill-rule="nonzero"/></g><g clip-path="url(#84f5184216)"><path fill="#023e49" d="M 132.886719 233.679688 L 192.875 233.679688 L 192.875 272.558594 L 132.886719 272.558594 Z M 132.886719 233.679688 " fill-opacity="1" fill-rule="nonzero"/></g><g clip-path="url(#366055c7b0)"><g clip-path="url(#71c0969623)"><g clip-path="url(#7b2f7455f8)"><path fill="#c57f23" d="M 152.972656 98.089844 C 152.867188 98.015625 152.796875 97.902344 152.769531 97.765625 C 152.675781 97.3125 152.621094 96.855469 152.570312 96.398438 C 151.101562 91.363281 148.777344 86.59375 147.429688 81.53125 C 145.277344 73.425781 145.324219 64.160156 147.257812 56.039062 C 147.898438 53.3125 148.441406 50.589844 149.304688 47.90625 C 149.433594 47.480469 149.578125 46.707031 149.769531 46.035156 C 149.929688 45.484375 150.15625 45.007812 150.414062 44.726562 C 150.582031 44.554688 150.742188 44.5625 150.863281 44.554688 C 151.023438 44.5625 151.148438 44.632812 151.257812 44.785156 C 151.304688 44.84375 151.351562 44.9375 151.359375 45.078125 C 151.367188 45.15625 151.355469 45.296875 151.363281 45.378906 C 151.378906 45.878906 151.394531 46.375 151.410156 46.875 C 151.441406 48.09375 151.550781 49.324219 151.738281 50.53125 C 152.3125 54.03125 152.914062 57.648438 154 61.027344 C 156.28125 68.203125 156.789062 76.027344 155.648438 83.472656 C 155.117188 86.890625 153.945312 90.039062 153.625 93.339844 L 153.628906 93.359375 C 154.441406 97.140625 155.082031 100.976562 155.460938 104.847656 C 155.808594 108.484375 155.914062 112.136719 155.65625 115.796875 C 155.574219 117.125 155.429688 118.433594 155.246094 119.746094 C 156.164062 117.820312 157.148438 115.949219 158.179688 114.152344 C 159.53125 111.816406 160.824219 109.28125 162.59375 107.210938 C 165.488281 103.820312 168.925781 101.292969 172.347656 98.523438 C 173.800781 97.355469 175.453125 96.4375 176.953125 95.328125 C 178.605469 94.105469 180.164062 92.714844 181.835938 91.492188 C 182.863281 90.738281 183.84375 89.945312 184.847656 89.171875 C 185.152344 88.929688 185.433594 88.710938 185.714844 88.449219 C 185.828125 88.339844 185.96875 88.089844 186.082031 87.984375 C 186.195312 87.875 186.308594 87.804688 186.386719 87.78125 C 186.5625 87.726562 186.707031 87.757812 186.832031 87.847656 C 186.9375 87.921875 187.066406 88.03125 187.101562 88.269531 C 187.171875 88.644531 187.042969 89.113281 186.820312 89.609375 C 186.5625 90.167969 186.164062 90.777344 185.972656 91.152344 C 184.894531 93.410156 183.964844 95.738281 182.785156 97.945312 C 179.597656 103.875 175.820312 109.453125 170.183594 113.363281 C 166.8125 115.707031 163.203125 117.210938 160.109375 119.253906 C 157.324219 121.097656 154.96875 123.386719 153.664062 127.183594 C 152.132812 132.535156 149.886719 137.398438 147.285156 142.367188 C 142.613281 151.289062 136.746094 160.539062 131.839844 173.714844 C 130.117188 178.339844 128.816406 183.015625 127.917969 187.703125 C 127.984375 187.558594 128.054688 187.414062 128.125 187.269531 C 130.273438 182.992188 133.917969 177.265625 137.679688 174.25 C 142.144531 170.707031 149.210938 167.753906 154.210938 164.730469 C 156.242188 163.5 157.976562 162.015625 159.699219 160.410156 C 160.074219 160.0625 160.550781 159.46875 161.054688 158.972656 C 161.445312 158.582031 161.863281 158.273438 162.253906 158.125 C 162.507812 158.027344 162.671875 158.09375 162.773438 158.148438 C 162.941406 158.234375 163.050781 158.386719 163.050781 158.648438 C 163.058594 158.726562 163.027344 158.847656 162.953125 158.972656 C 162.867188 159.121094 162.664062 159.375 162.59375 159.519531 C 162.363281 159.9375 162.132812 160.332031 161.921875 160.75 C 161.273438 161.976562 160.789062 163.292969 160.21875 164.554688 C 159.996094 165.050781 159.753906 165.546875 159.527344 166.023438 C 159.59375 166.117188 159.605469 166.257812 159.511719 166.34375 C 159.363281 166.515625 159.234375 166.683594 159.085938 166.855469 C 158.101562 168.707031 157.027344 170.445312 155.8125 172.15625 C 155.878906 172.25 155.886719 172.390625 155.792969 172.476562 C 155.171875 173.261719 154.527344 174.027344 153.839844 174.738281 C 153.617188 175.015625 153.378906 175.3125 153.140625 175.589844 C 148.675781 181.035156 143.148438 184.234375 137.160156 187.730469 C 135.085938 188.941406 132.847656 190.046875 130.910156 191.464844 C 129.050781 192.839844 127.488281 194.496094 126.699219 196.851562 C 126.636719 197.058594 126.570312 197.28125 126.527344 197.484375 C 125.625 208.734375 126.75 220.09375 129.351562 231.40625 C 129.351562 222.0625 134.472656 211.589844 139.601562 204.535156 C 139.710938 204.390625 139.820312 204.242188 139.929688 204.09375 C 141.984375 201.261719 144.371094 198.871094 147.070312 196.652344 C 147.238281 196.5 147.496094 196.203125 147.777344 195.960938 C 148.023438 195.742188 148.269531 195.546875 148.503906 195.46875 C 148.71875 195.394531 148.917969 195.378906 149.101562 195.445312 C 149.285156 195.511719 149.476562 195.636719 149.613281 195.886719 C 151.265625 199.046875 150.835938 203.921875 149.324219 208.992188 C 147.109375 216.472656 142.582031 224.382812 139.363281 227.71875 C 137.875 229.265625 135.683594 230.484375 133.828125 231.921875 C 132.3125 233.089844 131.027344 234.402344 130.640625 236.230469 C 133.738281 246.070312 140.929688 261.128906 147.367188 267.121094 C 147.6875 267.417969 147.707031 267.917969 147.410156 268.238281 C 147.167969 268.496094 146.8125 268.5625 146.503906 268.425781 C 146.464844 268.46875 146.40625 268.472656 146.367188 268.496094 C 146.429688 268.550781 146.476562 268.605469 146.539062 268.664062 C 146.648438 268.773438 146.640625 268.933594 146.546875 269.042969 C 146.433594 269.148438 146.273438 269.140625 146.167969 269.050781 C 145.4375 268.34375 144.800781 267.570312 144.160156 266.773438 C 144.097656 266.699219 144.085938 266.582031 144.140625 266.496094 C 143.683594 265.96875 143.222656 265.421875 142.824219 264.871094 C 142.734375 264.757812 142.761719 264.578125 142.878906 264.507812 C 142.898438 264.507812 142.894531 264.488281 142.914062 264.484375 C 140.394531 261.148438 137.859375 256.851562 135.613281 252.375 C 135.492188 252.324219 135.382812 252.210938 135.332031 252.074219 C 135.0625 251.375 134.792969 250.691406 134.484375 250.035156 C 134.390625 249.863281 134.316406 249.667969 134.226562 249.492188 C 133.753906 248.527344 133.246094 247.585938 132.679688 246.664062 C 131.808594 246.25 130.835938 246.058594 129.867188 245.929688 C 128.777344 245.789062 127.6875 245.6875 126.648438 245.421875 C 118.433594 243.320312 112.011719 240.546875 106.074219 234.238281 C 105.398438 233.503906 101.75 228.988281 100.8125 226.796875 C 100.597656 226.3125 100.507812 225.898438 100.546875 225.636719 C 100.570312 225.394531 100.679688 225.226562 100.828125 225.097656 C 101.074219 224.878906 101.441406 224.75 101.941406 224.714844 C 102.496094 224.675781 103.246094 224.78125 104.097656 224.957031 C 107.191406 225.652344 111.613281 227.613281 112.589844 228.101562 C 119.671875 231.6875 126.5 236.511719 131.359375 242.820312 L 131.335938 242.78125 C 130.773438 241.363281 130.230469 239.921875 129.742188 238.457031 C 129.335938 237.265625 128.949219 236.054688 128.601562 234.839844 C 128.492188 234.449219 128.382812 234.054688 128.273438 233.644531 C 128.21875 233.449219 128.183594 233.25 128.128906 233.035156 C 128.070312 232.796875 128.015625 232.5625 127.957031 232.328125 C 127.785156 231.578125 127.609375 230.832031 127.457031 230.101562 C 127.089844 228.390625 126.746094 226.652344 126.4375 224.914062 C 126.296875 224.066406 126.15625 223.214844 126.015625 222.386719 C 125.9375 222.152344 125.859375 221.917969 125.78125 221.664062 C 125.742188 221.664062 125.722656 221.648438 125.679688 221.628906 C 111.53125 216.296875 99.746094 205.511719 96.09375 190.496094 C 95.890625 189.628906 94.367188 184.039062 93.890625 181.375 C 93.753906 180.582031 93.734375 180.023438 93.796875 179.800781 C 93.875 179.515625 94.046875 179.382812 94.242188 179.328125 C 94.398438 179.277344 94.578125 179.261719 94.785156 179.367188 C 94.929688 179.4375 95.121094 179.5625 95.3125 179.730469 C 95.503906 179.894531 95.699219 180.101562 95.847656 180.191406 C 96.832031 180.820312 97.761719 181.492188 98.796875 181.996094 C 102.074219 183.597656 104.757812 185.285156 107.4375 187.769531 C 117.21875 196.859375 125.308594 217.078125 125.308594 217.078125 C 124 205.128906 124.554688 193.207031 127.644531 181.480469 C 127.644531 181.460938 127.644531 181.460938 127.640625 181.441406 C 127.402344 177.878906 125.796875 174.515625 123.765625 171.320312 C 121.691406 168.070312 119.1875 164.992188 117.179688 162.140625 C 113.652344 157.113281 111.222656 151.488281 110.125 145.449219 C 109.519531 142.09375 109.359375 138.742188 109.429688 135.316406 C 109.453125 134.296875 109.5 133.292969 109.546875 132.269531 C 109.558594 131.847656 109.585938 131.425781 109.617188 131.003906 C 109.613281 130.984375 109.574219 130.6875 109.5625 130.566406 C 109.570312 130.40625 109.605469 130.304688 109.660156 130.21875 C 109.730469 130.09375 109.84375 130.007812 109.960938 129.976562 C 110.078125 129.929688 110.238281 129.917969 110.421875 130.003906 C 110.652344 130.128906 110.890625 130.390625 111.097656 130.753906 C 111.398438 131.335938 111.644531 132.214844 111.851562 132.582031 C 112.773438 134.253906 113.917969 135.972656 115.125 137.464844 C 117.386719 140.21875 119.597656 142.558594 121.132812 145.828125 C 124.640625 153.335938 124.851562 161.203125 126.152344 169.226562 C 126.664062 172.390625 127.703125 175.398438 128.507812 178.5 C 129.054688 176.660156 129.683594 174.832031 130.347656 173.003906 C 133.898438 163.464844 137.953125 155.96875 141.699219 149.175781 C 141.695312 149.117188 141.691406 149.035156 141.707031 148.976562 C 142.546875 144.574219 141.570312 140.523438 139.929688 136.621094 C 138.257812 132.644531 135.902344 128.832031 134.023438 125.03125 C 131.375 119.640625 130.515625 112.523438 131.46875 106.652344 C 131.761719 104.871094 132.328125 101.390625 133.207031 99.746094 C 133.238281 99.601562 133.25 99.480469 133.277344 99.339844 C 133.308594 99.199219 133.441406 99.109375 133.582031 99.117188 C 133.726562 99.148438 133.816406 99.28125 133.804688 99.421875 C 133.925781 99.433594 134.03125 99.503906 134.140625 99.617188 C 134.183594 99.675781 134.25 99.769531 134.28125 99.925781 C 134.3125 100.066406 134.3125 100.34375 134.363281 100.480469 C 134.472656 100.894531 134.640625 101.28125 134.769531 101.671875 C 135.175781 102.84375 135.710938 103.902344 136.269531 105.003906 C 137.953125 108.320312 140.339844 111.167969 141.402344 114.792969 C 143.324219 121.414062 142.078125 127.925781 142.085938 134.644531 C 142.089844 138.566406 143.144531 142.351562 143.308594 146.238281 C 144.191406 144.632812 145.054688 143.050781 145.863281 141.492188 C 152.820312 128.226562 157.152344 115.707031 151.6875 92 Z M 131.015625 244.707031 C 131.015625 244.707031 131 244.726562 131 244.726562 C 131.039062 244.746094 131.058594 244.742188 131.101562 244.761719 Z M 105.5625 231.914062 C 106.203125 232.707031 106.726562 233.328125 106.925781 233.574219 C 112.710938 239.714844 118.988281 242.398438 126.980469 244.460938 C 127.285156 244.539062 127.609375 244.59375 127.933594 244.648438 C 127.441406 244.484375 126.945312 244.300781 126.472656 244.117188 C 124.789062 243.5 123.105469 242.921875 121.472656 242.160156 C 116.773438 239.980469 111.867188 237.457031 107.847656 234.148438 C 107.015625 233.46875 106.296875 232.660156 105.5625 231.914062 Z M 104.015625 228.765625 C 105.285156 230.011719 106.6875 231.152344 108.105469 232.207031 C 111.40625 234.6875 114.9375 236.734375 118.527344 238.792969 C 121.96875 240.761719 125.671875 242.996094 129.527344 244.273438 C 128.449219 243.792969 127.402344 243.148438 126.367188 242.644531 C 124.601562 241.773438 122.824219 240.960938 121.109375 239.964844 C 118.898438 238.664062 116.785156 237.117188 114.660156 235.691406 C 112.117188 233.996094 109.605469 232.21875 107.027344 230.566406 C 106.042969 229.976562 104.964844 229.4375 104.015625 228.765625 Z M 130.441406 243.386719 C 125.679688 237.292969 119.039062 232.632812 112.144531 229.132812 C 111.207031 228.664062 106.910156 226.753906 103.898438 226.074219 C 103.1875 225.90625 102.539062 225.8125 102.0625 225.847656 C 102.023438 225.847656 101.984375 225.851562 101.945312 225.855469 C 102.53125 225.972656 103.089844 226.230469 103.683594 226.390625 C 104.335938 226.5625 105.039062 226.628906 105.695312 226.84375 C 107.5 227.453125 109.179688 228.550781 110.863281 229.425781 C 112.15625 230.113281 113.496094 230.695312 114.730469 231.445312 C 116.824219 232.714844 118.753906 234.234375 120.722656 235.691406 C 122.898438 237.316406 125.113281 238.894531 127.257812 240.597656 C 128.363281 241.5 129.375 242.464844 130.441406 243.386719 Z M 102.125 226.441406 C 102.234375 226.554688 102.363281 226.664062 102.46875 226.757812 C 103.488281 227.28125 104.578125 227.683594 105.59375 228.210938 C 106.613281 228.734375 107.5625 229.386719 108.5625 229.953125 C 109.648438 230.574219 110.785156 231.113281 111.855469 231.757812 C 114.199219 233.1875 116.421875 234.863281 118.710938 236.378906 C 122.15625 238.648438 125.675781 240.851562 129.210938 242.996094 C 128.464844 242.332031 127.714844 241.644531 126.929688 241.023438 C 124.804688 239.335938 122.589844 237.757812 120.414062 236.136719 C 118.46875 234.695312 116.558594 233.175781 114.464844 231.925781 C 113.230469 231.175781 111.890625 230.59375 110.621094 229.925781 C 108.976562 229.042969 107.316406 227.964844 105.535156 227.375 C 104.898438 227.160156 104.214844 227.089844 103.5625 226.917969 C 103.070312 226.792969 102.597656 226.585938 102.125 226.441406 Z M 103.902344 228.011719 C 104.9375 228.816406 106.203125 229.425781 107.316406 230.125 C 109.894531 231.777344 112.40625 233.554688 114.949219 235.25 C 117.070312 236.679688 119.164062 238.226562 121.378906 239.503906 C 123.070312 240.484375 124.828125 241.296875 126.589844 242.148438 C 127.128906 242.40625 127.652344 242.710938 128.191406 242.992188 C 124.886719 240.992188 121.617188 238.929688 118.402344 236.820312 C 116.113281 235.328125 113.914062 233.667969 111.546875 232.238281 C 110.480469 231.597656 109.363281 231.058594 108.277344 230.4375 C 107.296875 229.867188 106.347656 229.214844 105.332031 228.710938 C 104.875 228.460938 104.378906 228.238281 103.902344 228.011719 Z M 104.097656 229.597656 C 104.617188 230.179688 105.160156 230.761719 105.71875 231.300781 C 106.539062 232.121094 107.304688 233.007812 108.199219 233.742188 C 112.175781 237.011719 117.039062 239.519531 121.695312 241.683594 C 122.832031 242.199219 123.984375 242.636719 125.136719 243.074219 C 122.753906 241.90625 120.433594 240.554688 118.242188 239.292969 C 114.652344 237.234375 111.101562 235.152344 107.78125 232.671875 C 106.507812 231.703125 105.253906 230.695312 104.097656 229.597656 Z M 147.984375 197.964844 C 146.515625 200.292969 145.429688 203.011719 144.058594 205.3125 C 138.890625 214.011719 134.355469 223.199219 131.339844 232.882812 C 135.429688 225.582031 138.90625 217.808594 142.601562 210.320312 C 144.640625 206.191406 146.988281 202.417969 147.984375 197.964844 Z M 141.390625 204.105469 C 141.226562 204.320312 141.042969 204.550781 140.878906 204.785156 C 140.769531 204.933594 140.660156 205.078125 140.550781 205.226562 C 135.347656 212.367188 130.128906 223.109375 130.527344 232.480469 C 131.148438 229.15625 132.335938 225.96875 133.320312 222.714844 C 135.246094 216.476562 137.640625 209.761719 141.390625 204.105469 Z M 148.816406 196.746094 C 148.78125 196.789062 148.761719 196.808594 148.722656 196.851562 C 147.910156 201.894531 145.308594 206.003906 143.058594 210.546875 C 139.742188 217.25 136.625 224.175781 133.066406 230.773438 C 138.335938 223.191406 143.589844 215.109375 146.394531 206.34375 C 147.445312 203.1875 148.617188 200.082031 148.816406 196.746094 Z M 147.34375 197.972656 C 140.222656 204.273438 136.53125 214.042969 133.851562 222.878906 C 133.046875 225.535156 132.09375 228.144531 131.429688 230.835938 C 134.453125 221.792969 138.75 213.199219 143.597656 205.027344 C 144.917969 202.808594 145.96875 200.234375 147.34375 197.972656 Z M 149.710938 201.363281 C 149.429688 203.28125 148.792969 205.25 148.355469 206.902344 C 147.0625 211.957031 142.234375 221.226562 138.835938 225.394531 C 137.585938 226.90625 136.3125 228.359375 135.078125 229.847656 C 136.394531 228.953125 137.710938 228.078125 138.695312 227.046875 C 141.820312 223.777344 146.238281 216.035156 148.40625 208.738281 C 149.160156 206.144531 149.65625 203.605469 149.710938 201.363281 Z M 149.203125 198.238281 C 148.808594 201.066406 147.808594 203.78125 146.925781 206.523438 C 144.265625 214.800781 139.464844 222.488281 134.488281 229.691406 C 135.773438 228.136719 137.105469 226.640625 138.390625 225.066406 C 141.753906 220.960938 146.527344 211.792969 147.804688 206.78125 C 148.179688 205.332031 148.71875 203.675781 149.039062 201.992188 C 149.304688 200.710938 149.410156 199.421875 149.203125 198.238281 Z M 124.980469 220.242188 C 124.980469 220.242188 124.980469 220.261719 124.980469 220.261719 L 125.042969 220.277344 Z M 97.925781 192.863281 C 98.292969 194.035156 98.714844 195.164062 99.195312 196.289062 C 102.992188 202.574219 110.144531 208.777344 114.957031 213.046875 C 117.992188 215.726562 120.40625 218.433594 124.246094 219.792969 C 116.757812 215.558594 111.605469 208.511719 105.855469 202.308594 C 102.949219 199.21875 100 196.371094 97.925781 192.863281 Z M 96.027344 185.699219 C 96.5625 187.839844 97.109375 189.859375 97.222656 190.332031 L 97.222656 190.351562 C 99.238281 194.925781 102.796875 198.25 106.246094 201.9375 C 111.519531 207.597656 116.261719 213.972656 122.753906 218.242188 C 120.125 215.933594 117.476562 213.585938 115.128906 211.035156 C 110.785156 206.308594 107.210938 200.910156 103.359375 195.769531 C 100.566406 192.050781 97.96875 189.339844 96.027344 185.699219 Z M 98.332031 183.03125 C 103.015625 187.730469 106.289062 193.695312 109.96875 199.207031 C 114.414062 205.886719 119.378906 212.007812 124.582031 218.089844 C 124.507812 217.855469 124.410156 217.621094 124.3125 217.371094 C 123.671875 216.816406 123.058594 216.121094 122.484375 215.339844 C 120.996094 213.328125 119.714844 210.84375 118.609375 209.363281 C 115 204.5625 111.492188 199.796875 108.339844 194.6875 C 106.117188 191.046875 104.335938 187.457031 101.285156 184.597656 C 100.367188 184.0625 99.410156 183.550781 98.414062 183.066406 C 98.375 183.046875 98.355469 183.050781 98.332031 183.03125 Z M 95.949219 181.605469 C 103.820312 193.292969 111.09375 205.347656 121.234375 215.230469 C 122.117188 216.089844 122.90625 217.03125 123.730469 217.929688 C 118.679688 211.996094 113.863281 206.007812 109.511719 199.5 C 105.402344 193.339844 101.816406 186.660156 96.199219 181.765625 C 96.117188 181.710938 96.03125 181.65625 95.949219 181.605469 Z M 100.683594 199.421875 C 104.828125 207.203125 111.476562 213.359375 119.308594 217.613281 C 117.695312 216.371094 116.230469 214.914062 114.585938 213.453125 C 110.476562 209.792969 104.671875 204.753906 100.683594 199.421875 Z M 94.996094 181.152344 C 95.0625 181.507812 95.132812 181.921875 95.226562 182.394531 C 95.28125 182.632812 95.320312 182.871094 95.378906 183.105469 C 97.355469 188.023438 100.410156 191 103.757812 195.457031 C 107.589844 200.582031 111.160156 205.960938 115.484375 210.6875 C 117.589844 212.976562 119.945312 215.085938 122.296875 217.175781 C 121.816406 216.648438 121.339844 216.125 120.824219 215.621094 C 110.140625 205.15625 102.605469 192.28125 94.191406 179.972656 Z M 103.132812 185.761719 C 105.378906 188.359375 106.9375 191.367188 108.800781 194.433594 C 111.933594 199.546875 115.4375 204.292969 119.027344 209.070312 C 120.136719 210.550781 121.414062 213.039062 122.902344 215.050781 C 123.167969 215.410156 123.433594 215.753906 123.714844 216.070312 C 121.863281 212.585938 119.625 209.328125 117.601562 205.953125 C 113.609375 199.222656 109.726562 192.542969 104.503906 186.742188 C 104.058594 186.394531 103.59375 186.070312 103.132812 185.761719 Z M 107.082031 188.9375 C 111.28125 194.132812 114.617188 199.871094 118.078125 205.640625 C 119.535156 208.054688 121.085938 210.421875 122.542969 212.855469 C 118.839844 204.003906 113.890625 195.382812 107.082031 188.9375 Z M 159.078125 163.457031 C 155.820312 166.511719 151.640625 168.457031 148.027344 171.039062 C 141.316406 175.808594 135.398438 181.660156 130.730469 188.457031 C 129.847656 189.761719 128.71875 191.023438 127.796875 192.371094 C 127.761719 192.453125 127.707031 192.519531 127.671875 192.601562 C 127.835938 192.390625 128.003906 192.195312 128.167969 191.984375 C 129.394531 190.4375 130.6875 188.960938 131.980469 187.46875 C 137.113281 181.574219 142.742188 176.445312 148.957031 171.691406 C 152.292969 169.128906 156.339844 166.773438 159.078125 163.457031 Z M 141.21875 173.113281 C 140.203125 173.75 139.253906 174.417969 138.402344 175.078125 C 134.753906 178.003906 131.214844 183.5625 129.117188 187.734375 C 128.59375 188.773438 128.074219 189.851562 127.59375 190.988281 C 128.5625 189.15625 129.714844 187.410156 130.789062 185.695312 C 133.625 181.226562 137.101562 176.714844 141.21875 173.113281 Z M 155.0625 171.46875 C 153.742188 172.84375 152.355469 174.164062 150.925781 175.410156 C 147.371094 178.527344 143.222656 181.128906 139.378906 183.871094 C 136.984375 185.582031 134.671875 187.332031 132.453125 189.273438 C 133.695312 188.484375 134.9375 187.691406 136.132812 186.824219 C 139.019531 184.714844 141.75 182.378906 144.707031 180.363281 C 146.707031 178.996094 148.933594 177.996094 150.953125 176.609375 C 151.457031 176.070312 151.9375 175.535156 152.414062 174.941406 C 153.351562 173.792969 154.246094 172.628906 155.0625 171.46875 Z M 158.085938 166.589844 C 157.648438 167.160156 157.1875 167.714844 156.703125 168.1875 C 155.269531 169.652344 153.601562 170.933594 152.058594 172.285156 C 147.492188 176.339844 142.703125 180.066406 137.875 183.800781 C 135.980469 185.277344 134.214844 186.824219 132.511719 188.46875 C 134.621094 186.675781 136.785156 185.039062 139.046875 183.414062 C 142.886719 180.675781 147 178.074219 150.554688 174.976562 C 152.773438 173.035156 154.882812 170.921875 156.859375 168.699219 C 157.292969 168.027344 157.699219 167.316406 158.085938 166.589844 Z M 158.949219 164.40625 C 156.207031 167.425781 152.429688 169.679688 149.285156 172.089844 C 143.109375 176.816406 137.496094 181.90625 132.402344 187.796875 C 132.257812 187.96875 132.109375 188.136719 131.960938 188.289062 C 133.734375 186.558594 135.574219 184.925781 137.5625 183.382812 C 142.371094 179.632812 147.164062 175.921875 151.730469 171.890625 C 153.253906 170.539062 154.921875 169.277344 156.335938 167.816406 C 157.265625 166.847656 158.160156 165.664062 158.949219 164.40625 Z M 147.96875 169.363281 C 146.8125 169.96875 145.636719 170.574219 144.5 171.195312 C 139.117188 175.027344 134.71875 180.546875 131.289062 185.957031 C 131.058594 186.335938 130.824219 186.691406 130.570312 187.070312 C 130.714844 186.859375 130.84375 186.671875 130.988281 186.480469 C 135.496094 179.953125 141.464844 174.035156 147.96875 169.363281 Z M 149.21875 178.3125 C 147.796875 179.136719 146.351562 179.882812 144.996094 180.800781 C 142.539062 182.460938 140.234375 184.367188 137.886719 186.160156 C 141.972656 183.761719 145.824219 181.441406 149.21875 178.3125 Z M 160.199219 161.496094 C 158.996094 162.601562 157.773438 163.652344 156.460938 164.585938 C 156.460938 164.585938 156.484375 164.605469 156.484375 164.605469 C 156.554688 164.738281 156.523438 164.902344 156.390625 164.972656 C 154.050781 166.382812 151.589844 167.480469 149.34375 169.042969 C 144.21875 172.578125 139.394531 176.925781 135.304688 181.746094 C 139 177.554688 143.191406 173.8125 147.753906 170.578125 C 151.769531 167.726562 156.5 165.644531 159.847656 161.917969 C 159.960938 161.792969 160.070312 161.644531 160.199219 161.496094 Z M 110.957031 133.246094 C 111.148438 134.191406 111.375 135.136719 111.722656 136.03125 C 112.210938 137.296875 113.011719 138.398438 113.425781 139.6875 C 115.816406 147.234375 118.308594 154.835938 121.320312 162.15625 C 122.222656 164.371094 123.257812 166.519531 124.3125 168.660156 C 124.453125 168.953125 124.617188 169.257812 124.777344 169.546875 C 124.148438 168.074219 123.8125 166.476562 123.324219 164.972656 C 122.292969 161.789062 121.203125 158.644531 120.171875 155.460938 C 118.472656 150.203125 116.761719 144.867188 114.535156 139.808594 C 113.671875 137.851562 112.457031 135.976562 111.441406 134.089844 C 111.257812 133.785156 111.117188 133.515625 110.957031 133.246094 Z M 114.457031 138.433594 C 114.644531 138.820312 114.832031 139.1875 115 139.574219 C 117.226562 144.652344 118.9375 150.007812 120.660156 155.285156 C 121.691406 158.46875 122.78125 161.613281 123.8125 164.796875 C 124.066406 165.558594 124.265625 166.363281 124.503906 167.148438 C 124.167969 165.570312 123.875 163.992188 123.460938 162.441406 C 122.417969 158.539062 121.039062 154.71875 119.957031 150.816406 C 119.0625 147.578125 118.359375 143.691406 116.449219 140.808594 C 115.789062 140.015625 115.136719 139.242188 114.457031 138.433594 Z M 111.453125 146.371094 C 112.59375 151.890625 114.886719 157.023438 118.121094 161.648438 C 119.351562 163.402344 120.742188 165.199219 122.117188 167.082031 C 121.539062 166.003906 120.960938 164.925781 120.363281 163.867188 C 118.421875 160.527344 116.539062 157.183594 114.765625 153.734375 C 113.511719 151.324219 112.355469 148.886719 111.453125 146.371094 Z M 110.605469 134.171875 L 110.589844 134.492188 C 110.632812 135.351562 110.714844 136.222656 110.855469 137.074219 C 111.199219 139.050781 111.96875 140.8125 112.585938 142.691406 C 113.398438 145.089844 114.097656 147.558594 115.050781 149.929688 C 115.855469 151.914062 116.871094 153.78125 117.695312 155.761719 C 119.03125 159.003906 120.5 162.175781 122.085938 165.28125 C 121.636719 164.316406 121.226562 163.34375 120.8125 162.355469 C 117.800781 155.011719 115.308594 147.394531 112.898438 139.847656 C 112.484375 138.574219 111.6875 137.472656 111.214844 136.226562 C 110.945312 135.546875 110.753906 134.839844 110.601562 134.132812 Z M 118.234375 143.097656 C 119.234375 145.546875 119.8125 148.265625 120.464844 150.660156 C 121.546875 154.558594 122.925781 158.378906 123.96875 162.285156 C 124.105469 162.777344 124.222656 163.265625 124.339844 163.777344 C 123.585938 157.851562 122.847656 152.046875 120.21875 146.4375 C 119.648438 145.21875 118.96875 144.125 118.234375 143.097656 Z M 110.566406 138.296875 C 110.609375 139.710938 110.691406 141.125 110.832031 142.535156 C 111.75 146.371094 113.390625 149.953125 115.230469 153.5 C 116.695312 156.332031 118.214844 159.082031 119.796875 161.847656 C 118.875 159.914062 118.015625 157.957031 117.1875 155.957031 C 116.367188 153.996094 115.347656 152.109375 114.546875 150.128906 C 113.59375 147.757812 112.875 145.289062 112.078125 142.867188 C 111.566406 141.324219 110.957031 139.847656 110.566406 138.296875 Z M 132.207031 111.839844 C 132.226562 116.257812 133.1875 120.910156 135.039062 124.675781 C 136.472656 127.59375 138.183594 130.507812 139.660156 133.5 C 139.507812 133.03125 139.335938 132.585938 139.144531 132.160156 C 136.441406 126.054688 133.3125 119.601562 132.347656 112.929688 C 132.300781 112.574219 132.253906 112.195312 132.207031 111.839844 Z M 138.179688 110.367188 C 138.589844 112.136719 138.703125 113.988281 138.878906 115.835938 C 139.097656 118.300781 139.476562 120.792969 139.539062 123.269531 C 139.578125 124.644531 139.582031 126.066406 139.644531 127.460938 C 139.980469 129.078125 140.320312 130.714844 140.675781 132.328125 C 140.675781 132.308594 140.671875 132.269531 140.671875 132.25 C 140.449219 129.484375 140.671875 126.746094 140.652344 123.988281 C 140.636719 119.96875 140.296875 115.792969 139.074219 111.941406 C 138.777344 111.402344 138.476562 110.882812 138.179688 110.367188 Z M 140.4375 115.261719 C 140.984375 118.144531 141.160156 121.089844 141.167969 123.96875 C 141.175781 126.511719 140.996094 129.042969 141.140625 131.574219 C 141.382812 126.09375 142.011719 120.707031 140.4375 115.261719 Z M 132.867188 105.210938 C 132.765625 105.757812 132.679688 106.246094 132.613281 106.691406 C 132.523438 108.738281 132.570312 110.773438 132.863281 112.871094 C 133.816406 119.402344 136.835938 125.707031 139.511719 131.691406 C 139.445312 131.375 139.402344 131.058594 139.359375 130.722656 C 138.964844 129.429688 138.53125 128.144531 138.117188 126.851562 C 136.882812 123.082031 135.273438 119.378906 134.3125 115.507812 C 133.507812 112.144531 132.917969 108.667969 132.867188 105.210938 Z M 133.527344 102.203125 L 133.511719 102.261719 C 133.148438 106.652344 133.792969 111.105469 134.84375 115.367188 C 135.785156 119.222656 137.390625 122.90625 138.625 126.675781 C 138.78125 127.183594 138.960938 127.691406 139.136719 128.199219 C 139.121094 127.980469 139.105469 127.761719 139.109375 127.539062 C 138.039062 122.4375 137.007812 117.332031 135.878906 112.253906 C 135.523438 110.679688 135.226562 109.078125 134.832031 107.507812 C 134.367188 105.761719 133.816406 103.980469 133.542969 102.160156 Z M 134.289062 103.347656 C 134.589844 104.707031 134.984375 106.035156 135.324219 107.371094 C 135.738281 108.941406 136.035156 110.542969 136.390625 112.136719 C 137.308594 116.25 138.148438 120.390625 139.007812 124.507812 C 138.996094 124.089844 138.988281 123.6875 138.976562 123.269531 C 138.917969 120.8125 138.539062 118.320312 138.320312 115.855469 C 138.097656 113.351562 137.972656 110.800781 137.027344 108.507812 C 136.4375 107.550781 135.867188 106.59375 135.355469 105.589844 C 135 104.855469 134.625 104.121094 134.289062 103.347656 Z M 156.648438 120.347656 C 156.613281 120.386719 156.59375 120.410156 156.554688 120.453125 C 156.410156 120.664062 156.269531 120.894531 156.125 121.105469 C 156.105469 121.125 156.085938 121.148438 156.066406 121.167969 C 156.050781 121.210938 156.035156 121.25 156.015625 121.273438 C 156.277344 120.992188 156.535156 120.734375 156.816406 120.472656 C 156.777344 120.457031 156.734375 120.441406 156.695312 120.421875 C 156.671875 120.402344 156.652344 120.386719 156.648438 120.347656 Z M 170.628906 101.308594 C 168.074219 103.332031 165.605469 105.394531 163.445312 107.910156 C 161.734375 109.933594 160.453125 112.410156 159.136719 114.683594 C 158.304688 116.144531 157.492188 117.664062 156.726562 119.199219 L 156.777344 119.117188 C 157.558594 117.980469 158.378906 116.878906 159.195312 115.78125 C 159.707031 115.0625 160.234375 114.34375 160.742188 113.628906 C 163.171875 110.210938 165.332031 106.875 168.1875 103.785156 C 168.96875 102.96875 169.789062 102.128906 170.628906 101.308594 Z M 183.023438 95.167969 C 180.035156 100.304688 176.082031 104.8125 171.542969 108.683594 C 168.714844 111.066406 165.785156 113.421875 162.871094 115.714844 C 161.867188 116.484375 160.847656 117.28125 159.910156 118.148438 C 160.425781 117.8125 160.960938 117.492188 161.5 117.191406 C 161.996094 116.835938 162.488281 116.480469 162.984375 116.125 C 166.925781 113.417969 170.601562 110.3125 174.085938 107.058594 C 175.957031 105.300781 178.015625 103.609375 179.546875 101.539062 C 180.367188 100.199219 181.148438 98.824219 181.910156 97.449219 C 182.292969 96.679688 182.660156 95.933594 183.023438 95.167969 Z M 181.203125 97.078125 C 177.644531 101.5 173.167969 105.164062 168.757812 108.863281 C 166.078125 111.097656 163.582031 113.660156 161.167969 116.175781 C 160.792969 116.5625 160.421875 116.929688 160.027344 117.320312 C 160.839844 116.621094 161.691406 115.957031 162.542969 115.296875 C 165.457031 113.023438 168.386719 110.671875 171.214844 108.285156 C 175.039062 105.007812 178.445312 101.257812 181.203125 97.078125 Z M 183.375 93.101562 C 182.164062 94.367188 180.890625 95.542969 179.640625 96.773438 C 176.390625 99.96875 173.246094 103.199219 169.890625 106.28125 C 167.582031 108.410156 165.222656 110.601562 163.132812 112.933594 C 162.019531 114.175781 160.953125 115.433594 159.863281 116.691406 C 160.160156 116.390625 160.460938 116.089844 160.757812 115.785156 C 163.195312 113.269531 165.6875 110.6875 168.40625 108.429688 C 173.953125 103.828125 179.597656 99.234375 183.375 93.101562 Z M 184.15625 91.464844 C 182.914062 92.292969 181.652344 93.105469 180.484375 94.070312 C 176.636719 97.308594 173.269531 101.054688 169.769531 104.648438 C 166.234375 108.269531 162.746094 112.0625 159.660156 116.105469 L 159.605469 116.191406 C 160.640625 114.976562 161.691406 113.757812 162.742188 112.5625 C 164.851562 110.207031 167.234375 108.015625 169.539062 105.867188 C 172.894531 102.78125 176.019531 99.554688 179.269531 96.359375 C 180.914062 94.78125 182.640625 93.214844 184.15625 91.464844 Z M 177.394531 104.695312 C 176.421875 105.628906 175.40625 106.519531 174.433594 107.433594 C 171.566406 110.101562 168.574219 112.679688 165.421875 115.007812 C 166.828125 114.246094 168.246094 113.421875 169.617188 112.460938 C 172.722656 110.316406 175.230469 107.652344 177.394531 104.695312 Z M 176.511719 96.960938 C 176.074219 97.25 175.636719 97.542969 175.195312 97.835938 C 172.941406 99.820312 170.578125 102.011719 168.59375 104.15625 C 166.796875 106.105469 165.265625 108.179688 163.777344 110.285156 C 165.589844 108.234375 167.484375 106.238281 169.402344 104.277344 C 171.765625 101.84375 174.085938 99.335938 176.511719 96.960938 Z M 154.136719 65.679688 C 154.351562 68.34375 154.386719 71.042969 154.261719 73.730469 C 154.078125 77.804688 153.707031 81.792969 153.265625 85.886719 C 153.074219 87.640625 152.882812 89.433594 152.890625 91.214844 C 153.382812 88.617188 154.195312 86.039062 154.617188 83.289062 C 155.519531 77.519531 155.378906 71.46875 154.136719 65.679688 Z M 147.179688 62.945312 C 146.542969 69.070312 146.925781 75.464844 148.46875 81.253906 C 149.207031 84.019531 150.222656 86.6875 151.238281 89.375 C 150.652344 86.816406 150.144531 84.253906 149.640625 81.6875 C 148.425781 75.417969 147.273438 69.238281 147.179688 62.945312 Z M 147.882812 58.3125 C 147.882812 58.332031 147.863281 58.355469 147.867188 58.375 C 147.257812 66.257812 148.667969 73.839844 150.171875 81.589844 C 150.652344 84.054688 151.148438 86.5 151.707031 88.960938 C 151.707031 88.679688 151.726562 88.398438 151.75 88.136719 C 151.320312 85.828125 150.773438 83.507812 150.386719 81.214844 C 149.4375 75.601562 148.847656 69.964844 148.296875 64.285156 C 148.078125 62.121094 147.898438 60.210938 147.882812 58.3125 Z M 152.925781 61.128906 C 153.316406 66.199219 153.226562 71.308594 152.851562 76.316406 C 152.648438 79.03125 152.886719 82.035156 152.621094 84.753906 C 152.550781 85.417969 152.476562 86.0625 152.402344 86.6875 C 152.433594 87.125 152.46875 87.566406 152.519531 88 C 152.585938 87.277344 152.65625 86.570312 152.742188 85.84375 C 153.183594 81.75 153.554688 77.765625 153.742188 73.710938 C 153.929688 69.714844 153.765625 65.765625 153.136719 61.8125 C 153.085938 61.65625 153.054688 61.519531 153.003906 61.382812 C 152.980469 61.304688 152.953125 61.207031 152.925781 61.128906 Z M 150.324219 48.433594 C 149.246094 55.875 149.722656 63.582031 150.421875 70.992188 C 150.796875 75.0625 151.148438 79.078125 151.683594 83.121094 C 151.667969 82.882812 151.671875 82.660156 151.652344 82.421875 C 151.441406 78.675781 151.292969 74.988281 151.242188 71.230469 C 151.164062 64.414062 150.683594 55.328125 150.324219 48.433594 Z M 151.105469 53.117188 C 151.402344 59.117188 151.710938 65.875 151.78125 71.230469 C 151.832031 74.96875 151.980469 78.660156 152.191406 82.382812 C 152.203125 82.542969 152.214844 82.703125 152.226562 82.863281 C 152.285156 80.675781 152.179688 78.363281 152.34375 76.25 C 152.789062 70.257812 152.820312 64.054688 152.101562 58.007812 C 151.703125 56.414062 151.382812 54.757812 151.105469 53.117188 Z M 149.445312 51.480469 C 149.105469 52.863281 148.804688 54.246094 148.46875 55.628906 C 148.296875 58.503906 148.523438 61.085938 148.828125 64.207031 C 149.375 69.765625 149.9375 75.304688 150.855469 80.800781 C 150.480469 77.546875 150.183594 74.308594 149.886719 71.03125 C 149.300781 64.632812 148.855469 57.960938 149.445312 51.480469 Z M 149.445312 51.480469 " fill-opacity="1" fill-rule="evenodd"/></g></g></g></svg>